<?xml version="1.0" encoding="UTF-8" standalone="no"?>
<!DOCTYPE svg PUBLIC "-//W3C//DTD SVG 1.1//EN" "http://www.w3.org/Graphics/SVG/1.1/DTD/svg11.dtd">
<svg width="100%" height="100%" viewBox="0 0 25 25" version="1.1" xmlns="http://www.w3.org/2000/svg" xmlns:xlink="http://www.w3.org/1999/xlink" xml:space="preserve" xmlns:serif="http://www.serif.com/" style="fill-rule:evenodd;clip-rule:evenodd;stroke-linejoin:round;stroke-miterlimit:2;">
    <g transform="matrix(1.07042,0,0,1.64833,-0.822823,-13.6268)">
        <path d="M11.506,9.346C11.689,9.084 12.081,8.917 12.512,8.917C12.942,8.917 13.334,9.084 13.518,9.346L16.036,12.936L21.895,13.436C22.322,13.472 22.68,13.671 22.813,13.946C22.946,14.221 22.831,14.524 22.517,14.722L18.215,17.441L19.317,21.34C19.398,21.624 19.227,21.914 18.878,22.084C18.53,22.254 18.067,22.274 17.689,22.135L12.512,20.225L7.334,22.135C6.957,22.274 6.494,22.254 6.145,22.084C5.797,21.914 5.626,21.624 5.706,21.34L6.809,17.441L2.507,14.722C2.193,14.524 2.078,14.221 2.211,13.946C2.344,13.671 2.701,13.472 3.129,13.436L8.987,12.936L11.506,9.346Z" style="fill:rgb(201,201,201);"/>
    </g>
    <g transform="matrix(1.06068,0,0,1.64412,-0.712526,-14.0318)">
        <path d="M11.506,9.346C11.689,9.084 12.081,8.917 12.512,8.917C12.942,8.917 13.334,9.084 13.518,9.346L16.036,12.936L21.895,13.436C22.322,13.472 22.68,13.671 22.813,13.946C22.946,14.221 22.831,14.524 22.517,14.722L18.215,17.441L19.317,21.34C19.398,21.624 19.227,21.914 18.878,22.084C18.53,22.254 18.067,22.274 17.689,22.135L12.512,20.225L7.334,22.135C6.957,22.274 6.494,22.254 6.145,22.084C5.797,21.914 5.626,21.624 5.706,21.34L6.809,17.441L2.507,14.722C2.193,14.524 2.078,14.221 2.211,13.946C2.344,13.671 2.701,13.472 3.129,13.436L8.987,12.936L11.506,9.346Z" style="fill:rgb(224,224,224);"/>
    </g>
</svg>
